<?xml version="1.0" encoding="utf-8"?>
<!-- Generator: Adobe Illustrator 18.0.0, SVG Export Plug-In . SVG Version: 6.00 Build 0)  -->
<!DOCTYPE svg PUBLIC "-//W3C//DTD SVG 1.1//EN" "http://www.w3.org/Graphics/SVG/1.1/DTD/svg11.dtd">
<svg version="1.1" id="Layer_1" xmlns="http://www.w3.org/2000/svg" xmlns:xlink="http://www.w3.org/1999/xlink" x="0px" y="0px"
	 viewBox="0 0 2500 2273" enable-background="new 0 0 2500 2273" xml:space="preserve">
<path fill="#FF9900" d="M5.5,1763.8c7.6-12.1,19.7-12.9,36.4-2.3C420.7,1981.2,832.8,2091,1278.3,2091c297,0,590.2-55.3,879.5-165.9
	c7.6-3,18.6-7.6,33-13.6c14.4-6.1,24.6-10.6,30.7-13.6c22.7-9.1,40.5-4.5,53.4,13.6c12.9,18.2,8.7,34.8-12.5,50
	c-27.3,19.7-62.1,42.4-104.5,68.2c-130.3,77.3-275.8,137.1-436.4,179.5c-160.6,42.4-317.4,63.6-470.5,63.6
	c-236.4,0-459.8-41.3-670.5-123.9c-210.6-82.6-399.2-198.9-565.9-348.9C5.5,1792.6,1,1785,1,1777.4C1,1772.9,2.5,1768.3,5.5,1763.8z
	 M689.6,1116c0-104.5,25.8-193.9,77.3-268.2c51.5-74.2,122-130.3,211.4-168.2c81.8-34.8,182.6-59.8,302.3-75
	c40.9-4.5,107.6-10.6,200-18.2v-38.6c0-97-10.6-162.1-31.8-195.5c-31.8-45.5-81.8-68.2-150-68.2h-18.2c-50,4.5-93.2,20.5-129.5,47.7
	s-59.8,65.2-70.5,113.6c-6.1,30.3-21.2,47.7-45.5,52.3L773.7,466c-25.8-6.1-38.6-19.7-38.6-40.9c0-4.5,0.8-9.8,2.3-15.9
	c25.8-134.8,89-234.8,189.8-300C1027.9,44.1,1145.7,7.7,1280.5,0.1h56.8c172.7,0,307.6,44.7,404.5,134.1
	c15.2,15.2,29.3,31.6,42,48.9c12.9,17.4,23.1,33,30.7,46.6c7.6,13.6,14.4,33.3,20.5,59.1c6.1,25.8,10.6,43.6,13.6,53.4
	c3,9.8,5.3,31.1,6.8,63.6c1.5,32.6,2.3,51.9,2.3,58v550c0,39.4,5.7,75.4,17,108c11.4,32.6,22.3,56.1,33,70.5
	c10.6,14.4,28,37.5,52.3,69.3c9.1,13.6,13.6,25.8,13.6,36.4c0,12.1-6.1,22.7-18.2,31.8c-125.8,109.1-193.9,168.2-204.5,177.3
	c-18.2,13.6-40.2,15.2-65.9,4.5c-21.2-18.2-39.8-35.6-55.7-52.3c-15.9-16.7-27.3-28.8-34.1-36.4c-6.8-7.6-17.8-22.3-33-44.3
	c-15.2-22-25.8-36.7-31.8-44.3c-84.8,92.4-168.2,150-250,172.7c-51.5,15.2-115.2,22.7-190.9,22.7c-116.7,0-212.5-36-287.5-108
	S689.6,1247.9,689.6,1116z M1080.5,1070.6c0,59.1,14.8,106.4,44.3,142s69.3,53.4,119.3,53.4c4.5,0,11-0.8,19.3-2.3
	c8.3-1.5,14-2.3,17-2.3c63.6-16.7,112.9-57.6,147.7-122.7c16.7-28.8,29.2-60.2,37.5-94.3c8.3-34.1,12.9-61.7,13.6-83
	c0.8-21.2,1.1-56.1,1.1-104.5v-56.8c-87.9,0-154.5,6.1-200,18.2C1147.2,856.2,1080.5,940.3,1080.5,1070.6z M2035.1,1802.4
	c3-6.1,7.6-12.1,13.6-18.2c37.9-25.8,74.2-43.2,109.1-52.3c57.6-15.2,113.6-23.5,168.2-25c15.2-1.5,29.5-0.8,43.2,2.3
	c68.2,6.1,109.1,17.4,122.7,34.1c6.1,9.1,9.1,22.7,9.1,40.9v15.9c0,53-14.4,115.5-43.2,187.5c-28.8,72-68.9,129.9-120.5,173.9
	c-7.6,6.1-14.4,9.1-20.5,9.1c-3,0-6.1-0.8-9.1-2.3c-9.1-4.5-11.4-12.9-6.8-25c56.1-131.8,84.1-223.5,84.1-275
	c0-16.7-3-28.8-9.1-36.4c-15.2-18.2-57.6-27.3-127.3-27.3c-25.8,0-56.1,1.5-90.9,4.5c-37.9,4.5-72.7,9.1-104.5,13.6
	c-9.1,0-15.2-1.5-18.2-4.5c-3-3-3.8-6.1-2.3-9.1C2032.8,1807.7,2033.6,1805.4,2035.1,1802.4z"/>
</svg>
